<svg width="40" height="40" viewBox="0 0 40 40" fill="none" xmlns="http://www.w3.org/2000/svg">
<path d="M29.8182 8H10.1818C8.97636 8 8 8.97636 8 10.1818V29.8182C8 31.0236 8.97636 32 10.1818 32H21.0909V22.1818H17.8182V18.9091H21.0909V17.1516C21.0909 13.8244 22.712 12.3636 25.4775 12.3636C26.8018 12.3636 27.5022 12.4618 27.8338 12.5065V15.6364H25.9476C24.7738 15.6364 24.3636 16.256 24.3636 17.5105V18.9091H27.8044L27.3375 22.1818H24.3636V32H29.8182C31.0236 32 32 31.0236 32 29.8182V10.1818C32 8.97636 31.0225 8 29.8182 8Z" fill="#304FFE"/>
</svg>
