<svg width="40" height="40" viewBox="0 0 40 40" fill="none" xmlns="http://www.w3.org/2000/svg">
<path d="M14.998 8C11.139 8 8 11.142 8 15.002V25.002C8 28.861 11.142 32 15.002 32H25.002C28.861 32 32 28.858 32 24.998V14.998C32 11.139 28.858 8 24.998 8H14.998ZM27 12C27.552 12 28 12.448 28 13C28 13.552 27.552 14 27 14C26.448 14 26 13.552 26 13C26 12.448 26.448 12 27 12ZM20 14C23.309 14 26 16.691 26 20C26 23.309 23.309 26 20 26C16.691 26 14 23.309 14 20C14 16.691 16.691 14 20 14ZM20 16C18.9391 16 17.9217 16.4214 17.1716 17.1716C16.4214 17.9217 16 18.9391 16 20C16 21.0609 16.4214 22.0783 17.1716 22.8284C17.9217 23.5786 18.9391 24 20 24C21.0609 24 22.0783 23.5786 22.8284 22.8284C23.5786 22.0783 24 21.0609 24 20C24 18.9391 23.5786 17.9217 22.8284 17.1716C22.0783 16.4214 21.0609 16 20 16Z" fill="#304FFE"/>
</svg>
