<svg width="40" height="40" viewBox="0 0 40 40" fill="none" xmlns="http://www.w3.org/2000/svg">
<path d="M32 12.3674C31.1166 12.7697 30.1678 13.0404 29.1718 13.1625C30.189 12.5377 30.969 11.5486 31.3363 10.3692C30.3856 10.9475 29.3315 11.3678 28.2091 11.595C27.3109 10.6134 26.0316 10 24.6157 10C21.8964 10 19.6922 12.2613 19.6922 15.049C19.6922 15.4446 19.7365 15.8308 19.8195 16.1991C15.7277 15.9889 12.1002 13.9784 9.67071 10.9229C9.24795 11.6688 9.00519 12.5359 9.00519 13.4625C9.00519 15.2137 9.87377 16.7594 11.1946 17.6643C10.3879 17.6378 9.62825 17.4107 8.96458 17.033C8.96458 17.0548 8.96458 17.0746 8.96458 17.0964C8.96458 19.5433 10.6611 21.5841 12.9143 22.0469C12.5017 22.1624 12.066 22.224 11.6165 22.224C11.2999 22.224 10.9907 22.1918 10.6907 22.134C11.3174 24.1398 13.1358 25.6004 15.2902 25.6411C13.6056 26.9956 11.4826 27.803 9.17503 27.803C8.77812 27.803 8.38583 27.7794 8 27.732C10.1793 29.1642 12.7666 30 15.5477 30C24.6046 30 29.5558 22.3063 29.5558 15.634C29.5558 15.4153 29.5512 15.1976 29.5419 14.9808C30.5047 14.2681 31.34 13.3792 32 12.3674Z" fill="#304FFE"/>
</svg>
