<svg width="56" height="64" viewBox="0 0 56 64" fill="none" xmlns="http://www.w3.org/2000/svg">
<path fill-rule="evenodd" clip-rule="evenodd" d="M27.6401 4.20532L36.2276 17.1949H36.2297L36.3026 17.3054L36.3032 17.3094L44.6 29.8594L38.5836 33.2457L38.5839 33.2475L38.5396 33.2725L38.5372 33.2718L27.6398 39.4053L17.0235 33.2306L17.0191 33.232L16.8588 33.139L16.8594 33.1351L11 29.7272L19.0998 17.3041L19.1004 17.2995L19.1685 17.1949H19.171L27.6401 4.20532ZM18.9867 18.1034L11.6157 29.4087L17.5668 28.1366L18.9867 18.1034ZM17.5145 28.5059L11.7208 29.7444L16.9119 32.7637L17.5145 28.5059ZM17.3139 32.3362L17.8667 28.4306L20.308 27.9087L17.3139 32.3362ZM17.4749 33.0911L27.4722 38.9058V30.0014L17.4749 33.0911ZM27.81 29.9658V38.9105L38.0792 33.1306L27.81 29.9658ZM38.5308 32.8764L43.8693 29.8717L37.9155 28.5764L38.5308 32.8764ZM37.8625 28.2065L43.9769 29.5367L36.4164 18.1005L37.8625 28.2065ZM36.1398 18.5542L37.51 28.1298L34.8315 27.5471L36.1398 18.5542ZM35.8178 17.1949L27.81 5.0822V17.1949H35.8178ZM27.4722 17.1949H19.579L27.4722 5.08871V17.1949ZM27.3159 17.5457H19.457L20.8292 27.138L27.3159 17.5457ZM20.5396 27.5011L17.9189 28.0613L19.2621 18.5705L20.5396 27.5011ZM20.7906 27.8055L17.4608 32.7295L27.1056 29.7487L20.7964 27.8043L20.7906 27.8055ZM21.4974 27.6544L27.4722 29.4958V26.3772L21.4974 27.6544ZM27.81 26.378L33.7975 27.6806L27.81 29.531V26.378ZM28.2913 29.7482L37.9617 32.7285L34.6247 27.8605L34.4925 27.8318L28.2913 29.7482ZM35.1121 27.9665L37.5629 28.4997L38.1131 32.3443L35.1121 27.9665ZM34.5484 27.1443L27.9685 17.5457H35.9448L34.5484 27.1443ZM27.4722 17.9252V26.0191L21.0737 27.3869L27.4722 17.9252ZM27.81 17.9194V26.0196L34.3359 27.4393L27.81 17.9194Z" fill="white"/>
<path d="M7.51041 54H8.88321L6.36801 50.5248L8.67201 47.28H7.30881L5.39841 50.0256H4.61121V47.28H3.51681V54H4.61121V51.0528H5.40801L7.51041 54ZM13.7554 51.4272C13.7554 49.92 12.6994 48.6912 11.1058 48.6912C9.58896 48.6912 8.44656 49.8624 8.44656 51.408C8.44656 52.9632 9.58896 54.1344 11.1058 54.1344C12.2674 54.1344 13.2178 53.4624 13.6306 52.368H12.5074C12.229 52.848 11.7298 53.136 11.1058 53.136C10.261 53.136 9.65616 52.6176 9.52176 51.7728H13.7266C13.7458 51.6576 13.7554 51.5424 13.7554 51.4272ZM11.1058 49.6608C11.9026 49.6608 12.4882 50.1216 12.6802 50.9088H9.55056C9.72336 50.1408 10.309 49.6608 11.1058 49.6608ZM19.4276 51.4272C19.4276 49.92 18.3716 48.6912 16.778 48.6912C15.2612 48.6912 14.1188 49.8624 14.1188 51.408C14.1188 52.9632 15.2612 54.1344 16.778 54.1344C17.9396 54.1344 18.89 53.4624 19.3028 52.368H18.1796C17.9012 52.848 17.402 53.136 16.778 53.136C15.9332 53.136 15.3284 52.6176 15.194 51.7728H19.3988C19.418 51.6576 19.4276 51.5424 19.4276 51.4272ZM16.778 49.6608C17.5748 49.6608 18.1604 50.1216 18.3524 50.9088H15.2228C15.3956 50.1408 15.9812 49.6608 16.778 49.6608ZM22.9591 48.6912C22.2103 48.6912 21.5575 48.9792 21.0871 49.4592L20.8855 48.816H20.1751V55.8624H21.2407V53.5104C21.6919 53.904 22.2871 54.1344 22.9591 54.1344C24.5047 54.1344 25.6471 52.9632 25.6471 51.408C25.6471 49.8528 24.5047 48.6912 22.9591 48.6912ZM22.8727 53.1168C21.8935 53.1168 21.1735 52.3872 21.1735 51.408C21.1735 50.4384 21.8935 49.7088 22.8727 49.7088C23.8519 49.7088 24.5623 50.4384 24.5623 51.408C24.5623 52.3872 23.8519 53.1168 22.8727 53.1168ZM29.1458 48.7008C28.3874 48.7008 27.7442 49.0176 27.3602 49.5456L27.149 48.816H26.4098V54H27.4754V51.2256C27.4754 50.3136 28.0514 49.6608 28.8674 49.6608C29.645 49.6608 30.0578 50.16 30.0578 51.1008V54H31.1234V50.88C31.1234 49.6032 30.365 48.7008 29.1458 48.7008ZM37.11 51.4272C37.11 49.92 36.054 48.6912 34.4604 48.6912C32.9436 48.6912 31.8012 49.8624 31.8012 51.408C31.8012 52.9632 32.9436 54.1344 34.4604 54.1344C35.622 54.1344 36.5724 53.4624 36.9852 52.368H35.862C35.5836 52.848 35.0844 53.136 34.4604 53.136C33.6156 53.136 33.0108 52.6176 32.8764 51.7728H37.0812C37.1004 51.6576 37.11 51.5424 37.11 51.4272ZM34.4604 49.6608C35.2572 49.6608 35.8428 50.1216 36.0348 50.9088H32.9052C33.078 50.1408 33.6636 49.6608 34.4604 49.6608ZM40.0958 53.04C39.4718 53.04 39.1262 52.6944 39.1262 52.0704V49.7376H40.6622V48.816H39.1166V47.6064H38.9342L37.1294 49.5264V49.7376H38.0606V52.1568C38.0606 53.2992 38.7614 54 39.8942 54H40.691V53.04H40.0958ZM41.3261 48.0192H42.4205V46.9152H41.3261V48.0192ZM41.3453 54H42.4109V48.816H41.3453V54ZM45.8722 54.1344C47.149 54.1344 48.1762 53.328 48.4546 52.1184H47.3794C47.101 52.752 46.5538 53.1168 45.8722 53.1168C44.9506 53.1168 44.2402 52.368 44.2402 51.408C44.2402 50.448 44.941 49.7088 45.8722 49.7088C46.5442 49.7088 47.1202 50.0736 47.389 50.6688H48.445C48.157 49.4784 47.1586 48.6912 45.8722 48.6912C44.3266 48.6912 43.1554 49.8624 43.1554 51.408C43.1554 52.9536 44.3266 54.1344 45.8722 54.1344ZM50.8457 54.1344C52.1129 54.1344 52.9481 53.4816 52.9481 52.4736C52.9481 51.1968 51.8825 51.024 51.0089 50.88C50.3849 50.7744 49.8569 50.688 49.8569 50.2272C49.8569 49.8528 50.2217 49.5936 50.8073 49.5936C51.4313 49.5936 51.8153 49.8624 51.8345 50.352H52.8425C52.8233 49.3536 52.0361 48.6912 50.8361 48.6912C49.6265 48.6912 48.8297 49.3344 48.8297 50.2656C48.8297 51.4656 49.8473 51.6576 50.7113 51.8112C51.3449 51.9168 51.9017 52.0224 51.9017 52.5216C51.9017 52.9536 51.4601 53.1936 50.8841 53.1936C50.2601 53.1936 49.7993 52.9056 49.7705 52.3584H48.7337C48.7625 53.4336 49.5881 54.1344 50.8457 54.1344Z" fill="white"/>
</svg>
